<svg width="50" height="50" viewBox="0 0 50 50" fill="none" xmlns="http://www.w3.org/2000/svg">
<path d="M42.6776 7.32227C37.9558 2.60059 31.6777 0 25 0C18.3223 0 12.0442 2.60059 7.32236 7.32227C2.60039 12.0442 0 18.3222 0 25C0 31.6778 2.60039 37.9558 7.32236 42.6777C12.0442 47.3994 18.3223 50 25 50C31.6777 50 37.9558 47.3994 42.6776 42.6777C47.3996 37.9558 50 31.6778 50 25C50 18.3222 47.3996 12.0442 42.6776 7.32227ZM8.85947 41.1404C4.92031 37.2013 2.59932 32.0755 2.22793 26.5693C2.825 26.5897 3.43525 26.6463 4.05186 26.738C8.47119 27.3944 12.9186 29.7695 16.5745 33.4255C20.2305 37.0815 22.6055 41.5288 23.262 45.9482C23.3519 46.5489 23.4078 47.1541 23.4295 47.761C18.1183 47.3979 12.9106 45.1915 8.85947 41.1404ZM25.6052 47.8068C25.5844 47.0776 25.52 46.3503 25.4122 45.6287C24.6876 40.7516 22.0949 35.8717 18.1115 31.8883C14.1281 27.9049 9.24834 25.3122 4.371 24.5876C3.64585 24.4793 2.91484 24.4147 2.18193 24.3943C2.20088 23.6644 2.254 22.9402 2.34033 22.2235C3.11494 22.2489 3.90205 22.3202 4.69053 22.4373C10.0257 23.2298 15.3379 26.0403 19.6487 30.3511C23.9594 34.6616 26.7699 39.9739 27.5625 45.3091C27.6778 46.0837 27.7489 46.8642 27.7756 47.6469C27.0551 47.7345 26.3308 47.7879 25.6052 47.8068ZM41.1404 41.1404C37.9514 44.3293 34.0459 46.3753 29.9373 47.279C29.9009 46.5126 29.826 45.7486 29.7131 44.9897C28.8524 39.1965 25.8241 33.452 21.1861 28.8139C16.5479 24.1758 10.8033 21.1477 5.01025 20.287C4.2485 20.1735 3.48151 20.0985 2.71221 20.0622L2.70625 20.0671C3.62998 15.8531 5.73584 11.9832 8.85957 8.85947C11.9103 5.80879 15.6166 3.8043 19.5291 2.84502C19.556 3.74346 19.636 4.63952 19.7687 5.52852C20.6292 11.3216 23.6574 17.0662 28.2955 21.7044C32.9336 26.3425 38.6782 29.3706 44.4716 30.2312C45.3632 30.3644 46.2619 30.4445 47.163 30.4711L47.1728 30.4549C46.1936 34.4662 44.1348 38.1462 41.1404 41.1404ZM47.5893 28.305C46.672 28.2958 45.7345 28.2211 44.791 28.081C39.4557 27.2884 34.1434 24.4779 29.8327 20.1672C25.5221 15.8564 22.7115 10.5442 21.919 5.20918C21.7795 4.26982 21.7046 3.33643 21.695 2.42354C22.4166 2.31884 23.1427 2.24855 23.8709 2.21289C23.8692 3.08545 23.9345 3.98125 24.0693 4.88975C24.7939 9.76699 27.3867 14.6469 31.3701 18.6302C31.7945 19.0545 32.4828 19.0545 32.9073 18.6302C33.3317 18.2058 33.3317 17.5175 32.9073 17.0929C29.2514 13.4369 26.8764 8.98965 26.2198 4.57021C26.1004 3.76582 26.0416 2.97529 26.0435 2.20879C31.5361 2.45781 36.9556 4.67432 41.1406 8.85957C45.2051 12.924 47.5471 18.2517 47.802 23.9569C47.0306 23.9586 46.2379 23.9003 45.4299 23.7803C44.8362 23.6921 44.2831 24.1021 44.195 24.6958C44.1067 25.2896 44.5167 25.8424 45.1104 25.9306C46.0083 26.064 46.894 26.1308 47.7569 26.1308C47.771 26.1308 47.7848 26.13 47.7988 26.13C47.7633 26.8579 47.6934 27.5837 47.5893 28.305Z" fill="#F1CDB3"/>
<path d="M38.4598 21.4792C38.1716 21.4797 37.8953 21.5942 37.6913 21.7977C37.4878 22.0017 37.3733 22.278 37.3728 22.5661C37.3728 22.852 37.4881 23.1324 37.6913 23.3346C37.8935 23.5368 38.1739 23.653 38.4598 23.653C38.7456 23.653 39.0261 23.5368 39.2282 23.3346C39.4313 23.1303 39.5457 22.8542 39.5467 22.5661C39.5467 22.2803 39.4304 21.9998 39.2282 21.7977C39.0242 21.5942 38.7479 21.4797 38.4598 21.4792Z" fill="#F1CDB3"/>
</svg>
